<?xml version="1.0" standalone="no"?>
<!DOCTYPE svg PUBLIC "-//W3C//DTD SVG 20010904//EN"
 "http://www.w3.org/TR/2001/REC-SVG-20010904/DTD/svg10.dtd">
<svg version="1.0" xmlns="http://www.w3.org/2000/svg"
 width="500.000000pt" height="500.000000pt" viewBox="0 0 500.000000 500.000000"
 preserveAspectRatio="xMidYMid meet">
<metadata>
Created by potrace 1.14, written by Peter Selinger 2001-2017
</metadata>
<g transform="translate(0.000000,500.000000) scale(0.100000,-0.100000)"
fill="#000000" stroke="none">
<path d="M2595 4984 c-40 -7 -111 -34 -165 -60 -80 -39 -109 -61 -180 -133
-58 -58 -97 -108 -122 -156 -24 -46 -286 -838 -773 -2340 -406 -1249 -740
-2276 -742 -2282 -4 -10 46 -13 230 -13 l236 0 6 23 c4 12 324 998 712 2192
534 1645 712 2181 735 2215 16 25 49 60 72 77 82 63 84 63 562 63 417 0 435
-1 490 -21 31 -12 74 -37 96 -57 61 -55 81 -103 85 -202 l3 -85 -138 -420
-137 -420 -233 -3 c-127 -1 -232 1 -232 5 0 5 60 192 134 416 l133 407 -236 0
-236 0 -206 -628 -205 -627 490 -3 c562 -3 575 -2 729 76 125 62 233 169 294
292 35 70 236 663 282 835 22 79 25 215 7 304 -59 288 -271 493 -566 547 -108
19 -1024 18 -1125 -2z"/>
</g>
</svg>
